<svg width="594" height="250" viewBox="0 0 594 250" fill="none" xmlns="http://www.w3.org/2000/svg">
<path d="M75 33.5L152 217L234 33H270V217" stroke="white" stroke-width="6"/>
<path d="M272.232 212.104C284.52 212.104 294.36 208.792 301.752 202.168C309.24 195.544 312.984 185.56 312.984 172.216C312.984 158.872 308.76 148.264 300.312 140.392C291.96 132.52 281.64 128.584 269.352 128.584C260.616 128.584 253.896 128.776 249.192 129.16V211.096C254.952 211.768 262.632 212.104 272.232 212.104ZM269.352 122.68C283.752 122.68 295.752 127.144 305.352 136.072C315.048 144.904 319.896 156.952 319.896 172.216C319.896 187.48 315.432 198.952 306.504 206.632C297.672 214.312 286.248 218.152 272.232 218.152C262.536 218.152 252.552 217.672 242.28 216.712V123.544C249.96 122.968 258.984 122.68 269.352 122.68ZM372.691 217H366.211V183.592L330.931 123.544H338.851L366.067 169.912C368.179 174.136 369.379 176.392 369.667 176.68C370.243 175.432 371.443 173.224 373.267 170.056L400.483 123.544H407.971L372.691 183.88V217ZM493.449 207.352C487.113 214.744 477.465 218.44 464.505 218.44C451.545 218.44 441.897 214.744 435.561 207.352C429.225 199.96 426.057 189.736 426.057 176.68V123.544H432.681V176.68C432.681 200.584 443.289 212.536 464.505 212.536C485.721 212.536 496.329 200.584 496.329 176.68V123.544H502.953V176.68C502.953 189.736 499.785 199.96 493.449 207.352ZM553.312 129.448H521.632V123.544H591.472V129.448H559.792V217H553.312V129.448Z" fill="white"/>
<rect x="253.5" y="2.5" width="17" height="15" stroke="white" stroke-width="5"/>
<path d="M0 34.9877H10.4874L16.9412 20.0988L24.2017 65.5926L34.6891 34.9877H42.7563L53.2437 11L58.8908 78L63.7311 34.9877H77.2437" stroke="white" stroke-width="5"/>
</svg>
